<?xml version="1.0" standalone="no"?><!DOCTYPE svg PUBLIC "-//W3C//DTD SVG 1.1//EN" "http://www.w3.org/Graphics/SVG/1.1/DTD/svg11.dtd"><svg xmlns:xlink="http://www.w3.org/1999/xlink" version="1.1" class="highcharts-root" style="font-family:&quot;Lucida Grande&quot;, &quot;Lucida Sans Unicode&quot;, Arial, Helvetica, sans-serif;font-size:12px;" xmlns="http://www.w3.org/2000/svg" width="600" height="400" viewBox="0 0 600 400"><desc>Created with Highcharts 6.2.0</desc><defs><clipPath id="highcharts-nom6gl3-77"><rect x="0" y="0" width="513" height="310" fill="none"></rect></clipPath></defs><rect fill="#ffffff" class="highcharts-background" x="0" y="0" width="600" height="400" rx="0" ry="0"></rect><rect fill="none" class="highcharts-plot-background" x="10" y="53" width="513" height="310"></rect><g class="highcharts-pane-group" data-z-index="0"></g><g class="highcharts-pane-group" data-z-index="0"></g><g class="highcharts-pane-group" data-z-index="0"></g><g class="highcharts-grid highcharts-xaxis-grid " data-z-index="1"><path fill="none" data-z-index="1" class="highcharts-grid-line" d="M 60.5 53 L 60.5 363" opacity="1"></path><path fill="none" data-z-index="1" class="highcharts-grid-line" d="M 112.5 53 L 112.5 363" opacity="1"></path><path fill="none" data-z-index="1" class="highcharts-grid-line" d="M 163.5 53 L 163.5 363" opacity="1"></path><path fill="none" data-z-index="1" class="highcharts-grid-line" d="M 214.5 53 L 214.5 363" opacity="1"></path><path fill="none" data-z-index="1" class="highcharts-grid-line" d="M 266.5 53 L 266.5 363" opacity="1"></path><path fill="none" data-z-index="1" class="highcharts-grid-line" d="M 317.5 53 L 317.5 363" opacity="1"></path><path fill="none" data-z-index="1" class="highcharts-grid-line" d="M 368.5 53 L 368.5 363" opacity="1"></path><path fill="none" data-z-index="1" class="highcharts-grid-line" d="M 419.5 53 L 419.5 363" opacity="1"></path><path fill="none" data-z-index="1" class="highcharts-grid-line" d="M 471.5 53 L 471.5 363" opacity="1"></path><path fill="none" data-z-index="1" class="highcharts-grid-line" d="M 522.5 53 L 522.5 363" opacity="1"></path><path fill="none" data-z-index="1" class="highcharts-grid-line" d="M 9.5 53 L 9.5 363" opacity="1"></path></g><g class="highcharts-grid highcharts-yaxis-grid " data-z-index="1"><path fill="none" stroke="#e6e6e6" stroke-width="1" data-z-index="1" class="highcharts-grid-line" d="M 10 363.5 L 523 363.5" opacity="1"></path><path fill="none" stroke="#e6e6e6" stroke-width="1" data-z-index="1" class="highcharts-grid-line" d="M 10 301.5 L 523 301.5" opacity="1"></path><path fill="none" stroke="#e6e6e6" stroke-width="1" data-z-index="1" class="highcharts-grid-line" d="M 10 239.5 L 523 239.5" opacity="1"></path><path fill="none" stroke="#e6e6e6" stroke-width="1" data-z-index="1" class="highcharts-grid-line" d="M 10 177.5 L 523 177.5" opacity="1"></path><path fill="none" stroke="#e6e6e6" stroke-width="1" data-z-index="1" class="highcharts-grid-line" d="M 10 115.5 L 523 115.5" opacity="1"></path><path fill="none" stroke="#e6e6e6" stroke-width="1" data-z-index="1" class="highcharts-grid-line" d="M 10 52.5 L 523 52.5" opacity="1"></path></g><g class="highcharts-grid highcharts-yaxis-grid " data-z-index="1"><path fill="none" stroke="#e6e6e6" stroke-width="1" data-z-index="1" class="highcharts-grid-line" d="M 10 363.5 L 523 363.5" opacity="1"></path><path fill="none" stroke="#e6e6e6" stroke-width="1" data-z-index="1" class="highcharts-grid-line" d="M 10 301.5 L 523 301.5" opacity="1"></path><path fill="none" stroke="#e6e6e6" stroke-width="1" data-z-index="1" class="highcharts-grid-line" d="M 10 239.5 L 523 239.5" opacity="1"></path><path fill="none" stroke="#e6e6e6" stroke-width="1" data-z-index="1" class="highcharts-grid-line" d="M 10 177.5 L 523 177.5" opacity="1"></path><path fill="none" stroke="#e6e6e6" stroke-width="1" data-z-index="1" class="highcharts-grid-line" d="M 10 115.5 L 523 115.5" opacity="1"></path><path fill="none" stroke="#e6e6e6" stroke-width="1" data-z-index="1" class="highcharts-grid-line" d="M 10 52.5 L 523 52.5" opacity="1"></path></g><rect fill="none" class="highcharts-plot-border" data-z-index="1" x="10" y="53" width="513" height="310"></rect><g class="highcharts-axis highcharts-xaxis " data-z-index="2"><path fill="none" class="highcharts-tick" stroke="#ccd6eb" stroke-width="1" d="M 60.5 363 L 60.5 373" opacity="1"></path><path fill="none" class="highcharts-tick" stroke="#ccd6eb" stroke-width="1" d="M 112.5 363 L 112.5 373" opacity="1"></path><path fill="none" class="highcharts-tick" stroke="#ccd6eb" stroke-width="1" d="M 163.5 363 L 163.5 373" opacity="1"></path><path fill="none" class="highcharts-tick" stroke="#ccd6eb" stroke-width="1" d="M 214.5 363 L 214.5 373" opacity="1"></path><path fill="none" class="highcharts-tick" stroke="#ccd6eb" stroke-width="1" d="M 266.5 363 L 266.5 373" opacity="1"></path><path fill="none" class="highcharts-tick" stroke="#ccd6eb" stroke-width="1" d="M 317.5 363 L 317.5 373" opacity="1"></path><path fill="none" class="highcharts-tick" stroke="#ccd6eb" stroke-width="1" d="M 368.5 363 L 368.5 373" opacity="1"></path><path fill="none" class="highcharts-tick" stroke="#ccd6eb" stroke-width="1" d="M 419.5 363 L 419.5 373" opacity="1"></path><path fill="none" class="highcharts-tick" stroke="#ccd6eb" stroke-width="1" d="M 471.5 363 L 471.5 373" opacity="1"></path><path fill="none" class="highcharts-tick" stroke="#ccd6eb" stroke-width="1" d="M 523.5 363 L 523.5 373" opacity="1"></path><path fill="none" class="highcharts-tick" stroke="#ccd6eb" stroke-width="1" d="M 9.5 363 L 9.5 373" opacity="1"></path><path fill="none" class="highcharts-axis-line" stroke="#ccd6eb" stroke-width="1" data-z-index="7" d="M 10 363.5 L 523 363.5"></path></g><g class="highcharts-axis highcharts-yaxis " data-z-index="2"><path fill="none" class="highcharts-axis-line" data-z-index="7" d="M 523 53 L 523 363"></path></g><g class="highcharts-axis highcharts-yaxis " data-z-index="2"><path fill="none" class="highcharts-axis-line" data-z-index="7" d="M 548 53 L 548 363"></path></g><g class="highcharts-series-group" data-z-index="3"><g data-z-index="0.1" class="highcharts-series highcharts-series-0 highcharts-column-series " transform="translate(10,53) scale(1 1)" clip-path="url(#highcharts-nom6gl3-77)"><rect x="12.5" y="310.5" width="25" height="0" fill="#A0A0A0" stroke="#ffffff" stroke-width="1" class="highcharts-point"></rect><rect x="64.5" y="310.5" width="25" height="0" fill="#A0A0A0" stroke="#ffffff" stroke-width="1" class="highcharts-point"></rect><rect x="115.5" y="310.5" width="25" height="0" fill="#A0A0A0" stroke="#ffffff" stroke-width="1" class="highcharts-point"></rect><rect x="166.5" y="310.5" width="25" height="0" fill="#A0A0A0" stroke="#ffffff" stroke-width="1" class="highcharts-point"></rect><rect x="218.5" y="310.5" width="25" height="0" fill="#A0A0A0" stroke="#ffffff" stroke-width="1" class="highcharts-point"></rect><rect x="269.5" y="310.5" width="25" height="0" fill="#A0A0A0" stroke="#ffffff" stroke-width="1" class="highcharts-point"></rect><rect x="320.5" y="310.5" width="25" height="0" fill="#A0A0A0" stroke="#ffffff" stroke-width="1" class="highcharts-point"></rect><rect x="371.5" y="310.5" width="25" height="0" fill="#A0A0A0" stroke="#ffffff" stroke-width="1" class="highcharts-point"></rect><rect x="423.5" y="310.5" width="25" height="0" fill="#A0A0A0" stroke="#ffffff" stroke-width="1" class="highcharts-point"></rect><rect x="474.5" y="310.5" width="25" height="0" fill="#A0A0A0" stroke="#ffffff" stroke-width="1" class="highcharts-point"></rect></g><g data-z-index="0.1" class="highcharts-markers highcharts-series-0 highcharts-column-series " transform="translate(10,53) scale(1 1)" clip-path="none"></g><g data-z-index="0.1" class="highcharts-series highcharts-series-1 highcharts-spline-series " transform="translate(10,53) scale(1 1)" clip-path="url(#highcharts-nom6gl3-77)"><path fill="none" d="M 25.65 251.1 C 25.65 251.1 56.43000000000001 269.7 76.95 272.8 C 97.47 275.90000000000003 107.72999999999999 275.90000000000003 128.25 275.90000000000003 C 148.77 275.90000000000003 159.03000000000003 275.90000000000003 179.55 251.1 C 200.07000000000002 226.29999999999995 210.33 145.70000000000002 230.85 133.3 C 251.36999999999998 120.9 261.63 130.2 282.15 120.9 C 302.66999999999996 111.60000000000001 312.92999999999995 100.44000000000004 333.45 86.80000000000001 C 353.96999999999997 73.16000000000003 364.23 58.89999999999998 384.75 52.69999999999999 C 405.27 46.5 415.53000000000003 46.5 436.05 46.5 C 456.57000000000005 46.5 487.35 58.900000000000006 487.35 58.900000000000006" class="highcharts-graph" data-z-index="1" stroke="blue" stroke-width="2" stroke-linejoin="round" stroke-linecap="round"></path></g><g data-z-index="0.1" class="highcharts-markers highcharts-series-1 highcharts-spline-series " transform="translate(10,53) scale(1 1)" clip-path="none"><path fill="blue" d="M 29 251 A 4 4 0 1 1 28.99999800000017 250.99600000066667 Z" class="highcharts-point"></path><path fill="blue" d="M 80 273 A 4 4 0 1 1 79.99999800000016 272.99600000066664 Z" class="highcharts-point"></path><path fill="blue" d="M 132 276 A 4 4 0 1 1 131.99999800000018 275.99600000066664 Z" class="highcharts-point"></path><path fill="blue" d="M 183 251 A 4 4 0 1 1 182.99999800000018 250.99600000066667 Z" class="highcharts-point"></path><path fill="blue" d="M 234 133 A 4 4 0 1 1 233.99999800000018 132.99600000066667 Z" class="highcharts-point"></path><path fill="blue" d="M 286 121 A 4 4 0 1 1 285.9999980000002 120.99600000066667 Z" class="highcharts-point"></path><path fill="blue" d="M 337 87 A 4 4 0 1 1 336.9999980000002 86.99600000066667 Z" class="highcharts-point"></path><path fill="blue" d="M 388 53 A 4 4 0 1 1 387.9999980000002 52.99600000066666 Z" class="highcharts-point"></path><path fill="blue" d="M 440 47 A 4 4 0 1 1 439.9999980000002 46.99600000066666 Z" class="highcharts-point"></path><path fill="blue" d="M 491 59 A 4 4 0 1 1 490.9999980000002 58.99600000066666 Z" class="highcharts-point"></path></g></g><text x="300" text-anchor="middle" class="highcharts-title" data-z-index="4" style="color:#333333;font-size:18px;fill:#333333;" y="24"><tspan>Chart title</tspan></text><text x="300" text-anchor="middle" class="highcharts-subtitle" data-z-index="4" style="color:#666666;fill:#666666;" y="52"></text><g class="highcharts-legend" data-z-index="7" transform="translate(380,18)"><rect fill="#FFFFFF" class="highcharts-legend-box" rx="0" ry="0" x="0" y="0" width="116" height="47" visibility="visible"></rect><g data-z-index="1"><g><g class="highcharts-legend-item highcharts-column-series highcharts-color-undefined highcharts-series-0" data-z-index="1" transform="translate(8,3)"><text x="21" style="color:#333333;font-size:12px;font-weight:bold;cursor:pointer;fill:#333333;" text-anchor="start" data-z-index="2" y="15"><tspan>Precipitation</tspan></text><rect x="2" y="4" width="12" height="12" fill="#A0A0A0" rx="6" ry="6" class="highcharts-point" data-z-index="3"></rect></g><g class="highcharts-legend-item highcharts-spline-series highcharts-color-undefined highcharts-series-1" data-z-index="1" transform="translate(8,21)"><path fill="none" d="M 0 11 L 16 11" class="highcharts-graph" stroke="blue" stroke-width="2"></path><path fill="blue" d="M 12 11 A 4 4 0 1 1 11.999998000000167 10.996000000666664 Z" class="highcharts-point"></path><text x="21" y="15" style="color:#333333;font-size:12px;font-weight:bold;cursor:pointer;fill:#333333;" text-anchor="start" data-z-index="2"><tspan>Temperature</tspan></text></g></g></g></g><g class="highcharts-axis-labels highcharts-xaxis-labels " data-z-index="7"><text x="35.65" style="color:#666666;cursor:default;font-size:11px;fill:#666666;" text-anchor="middle" transform="translate(0,0)" y="382" opacity="1">01:00</text><text x="86.94999999999999" style="color:#666666;cursor:default;font-size:11px;fill:#666666;" text-anchor="middle" transform="translate(0,0)" y="382" opacity="1">04:00</text><text x="138.25" style="color:#666666;cursor:default;font-size:11px;fill:#666666;" text-anchor="middle" transform="translate(0,0)" y="382" opacity="1">07:00</text><text x="189.54999999999998" style="color:#666666;cursor:default;font-size:11px;fill:#666666;" text-anchor="middle" transform="translate(0,0)" y="382" opacity="1">10:00</text><text x="240.85" style="color:#666666;cursor:default;font-size:11px;fill:#666666;" text-anchor="middle" transform="translate(0,0)" y="382" opacity="1">13:00</text><text x="292.15000000000003" style="color:#666666;cursor:default;font-size:11px;fill:#666666;" text-anchor="middle" transform="translate(0,0)" y="382" opacity="1">16:00</text><text x="343.45000000000005" style="color:#666666;cursor:default;font-size:11px;fill:#666666;" text-anchor="middle" transform="translate(0,0)" y="382" opacity="1">19:00</text><text x="394.75" style="color:#666666;cursor:default;font-size:11px;fill:#666666;" text-anchor="middle" transform="translate(0,0)" y="382" opacity="1">22:00</text><text x="446.05" style="color:#666666;cursor:default;font-size:11px;fill:#666666;" text-anchor="middle" transform="translate(0,0)" y="382" opacity="1">01:00</text><text x="497.35" style="color:#666666;cursor:default;font-size:11px;fill:#666666;" text-anchor="middle" transform="translate(0,0)" y="382" opacity="1">04:00</text></g><g class="highcharts-axis-labels highcharts-yaxis-labels " data-z-index="7"><text x="523" style="color:blue;cursor:default;font-size:11px;fill:blue;" text-anchor="start" transform="translate(0,0)" y="367" opacity="1">4°C</text><text x="523" style="color:blue;cursor:default;font-size:11px;fill:blue;" text-anchor="start" transform="translate(0,0)" y="305" opacity="1">6°C</text><text x="523" style="color:blue;cursor:default;font-size:11px;fill:blue;" text-anchor="start" transform="translate(0,0)" y="243" opacity="1">8°C</text><text x="523" style="color:blue;cursor:default;font-size:11px;fill:blue;" text-anchor="start" transform="translate(0,0)" y="181" opacity="1">10°C</text><text x="523" style="color:blue;cursor:default;font-size:11px;fill:blue;" text-anchor="start" transform="translate(0,0)" y="119" opacity="1">12°C</text><text x="523" style="color:blue;cursor:default;font-size:11px;fill:blue;" text-anchor="start" transform="translate(0,0)" y="57" opacity="1">14°C</text></g><g class="highcharts-axis-labels highcharts-yaxis-labels " data-z-index="7"><text x="562.96875" style="color:#4572A7;cursor:default;font-size:11px;fill:#4572A7;" text-anchor="start" transform="translate(0,0)" y="367" opacity="1">0mm</text><text x="562.96875" style="color:#4572A7;cursor:default;font-size:11px;fill:#4572A7;" text-anchor="start" transform="translate(0,0)" y="305" opacity="1">1mm</text><text x="562.96875" style="color:#4572A7;cursor:default;font-size:11px;fill:#4572A7;" text-anchor="start" transform="translate(0,0)" y="243" opacity="1">2mm</text><text x="562.96875" style="color:#4572A7;cursor:default;font-size:11px;fill:#4572A7;" text-anchor="start" transform="translate(0,0)" y="181" opacity="1">3mm</text><text x="562.96875" style="color:#4572A7;cursor:default;font-size:11px;fill:#4572A7;" text-anchor="start" transform="translate(0,0)" y="119" opacity="1">4mm</text><text x="562.96875" style="color:#4572A7;cursor:default;font-size:11px;fill:#4572A7;" text-anchor="start" transform="translate(0,0)" y="57" opacity="1">5mm</text></g><text x="590" class="highcharts-credits" text-anchor="end" data-z-index="8" style="cursor:pointer;color:#999999;font-size:9px;fill:#999999;" y="395">Highcharts.com</text></svg>